<?xml version="1.0"?>
<svg xmlns="http://www.w3.org/2000/svg" xmlns:xlink="http://www.w3.org/1999/xlink" version="1.1" viewBox="0 0 172 172" width="48px" height="48px"><g fill="none" fill-rule="nonzero" stroke="none" stroke-width="1" stroke-linecap="butt" stroke-linejoin="miter" stroke-miterlimit="10" stroke-dasharray="" stroke-dashoffset="0" font-family="none" font-weight="none" font-size="none" text-anchor="none" style="mix-blend-mode: normal"><path d="M0,172v-172h172v172z" fill="none"/><g id="Layer_1"><path d="M139.75,140.10833h-107.5c-6.09167,0 -10.75,-4.65833 -10.75,-10.75v-97.10833c0,-6.09167 4.65833,-10.75 10.75,-10.75h107.5c6.09167,0 10.75,4.65833 10.75,10.75v97.10833c0,5.73333 -4.65833,10.75 -10.75,10.75z" fill="#34495e"/><path d="M139.75,150.5h-107.5c-6.09167,0 -10.75,-4.65833 -10.75,-10.75v-89.58333c0,-6.09167 4.65833,-10.75 10.75,-10.75h107.5c6.09167,0 10.75,4.65833 10.75,10.75v89.58333c0,6.09167 -4.65833,10.75 -10.75,10.75z" fill="#3498db"/><circle cx="15" cy="17" transform="scale(3.58333,3.58333)" r="2" fill="#34495e"/><circle cx="33" cy="17" transform="scale(3.58333,3.58333)" r="2" fill="#34495e"/><path d="M86,96.75c-19.70833,0 -35.83333,-16.125 -35.83333,-35.83333c0,-2.15 1.43333,-3.58333 3.58333,-3.58333c2.15,0 3.58333,1.43333 3.58333,3.58333c0,15.76667 12.9,28.66667 28.66667,28.66667c15.76667,0 28.66667,-12.9 28.66667,-28.66667c0,-2.15 1.43333,-3.58333 3.58333,-3.58333c2.15,0 3.58333,1.43333 3.58333,3.58333c0,19.70833 -16.125,35.83333 -35.83333,35.83333z" fill="#ffffff"/></g></g></svg>
